<svg width="82" height="20" viewBox="0 0 82 20" fill="none" xmlns="http://www.w3.org/2000/svg">
<g clip-path="url(#clip0_532_3821)">
<path fill-rule="evenodd" clip-rule="evenodd" d="M72.8441 8.0346C74.5511 8.0346 75.1343 9.4766 75.361 10.5572H70.3301C70.5982 9.08275 71.4525 8.0346 72.8441 8.0346ZM73.3168 15.1724C71.7125 15.1724 70.6426 14.0956 70.332 12.5725H77.6382C77.6382 12.5725 77.6961 12.1919 77.6961 11.7249C77.6961 8.4284 76.0913 6.0209 72.8441 6.0209C69.8554 6.0209 67.9289 8.5856 67.9289 11.6198C67.9289 14.6542 69.6104 17.2189 73.1856 17.2189C75.948 17.2189 77.7134 15.4234 77.7134 15.4234L76.5365 13.7905C76.5365 13.7905 75.1666 15.1724 73.3168 15.1724ZM79.4494 16.9797H81.8786V2.52709H79.4494V16.9797ZM65.493 2.30237C66.5118 2.30237 67.6819 2.58149 67.6819 2.58149V4.72063C66.8412 4.39559 64.5013 3.71689 64.5013 5.7794V6.2404H67.6819V8.31445H64.5013V16.9796H62.0727V5.5425C62.0727 2.4023 64.4733 2.30237 65.493 2.30237ZM58.6007 2.30237C59.6199 2.30237 60.7896 2.58149 60.7896 2.58149V4.72063C59.9489 4.39559 57.6094 3.71689 57.6094 5.7794V6.2404H60.7896V8.31445H57.6094V16.9796H55.1803V8.31445H53.385V6.2404H55.1803V5.5425C55.1803 2.4023 57.5815 2.30237 58.6007 2.30237ZM49.5402 6.2399H51.9693V16.9791H49.5402V15.5085C48.9541 16.2255 47.8648 17.1984 46.2646 17.1984C43.7306 17.1984 42.4453 15.3642 42.4453 13.2552C42.4453 11.146 42.4453 6.2399 42.4453 6.2399H44.8743C44.8743 6.2399 44.8743 11.3807 44.8743 12.5373C44.8743 13.6939 45.4186 14.8999 47.1494 14.8999C48.2827 14.8999 49.0622 14.155 49.5402 13.2282V6.2399ZM33.9974 14.6411H30.9374V5.35895H33.9974C36.4699 5.35895 38.272 7.43695 38.272 10.0001C38.272 12.5634 36.4699 14.6411 33.9974 14.6411ZM33.9977 3.02112H28.4702V16.9805H33.9977C37.7163 16.9805 40.7309 13.8555 40.7309 10.0009C40.7309 6.146 37.7163 3.02112 33.9977 3.02112Z" fill="#100024"/>
<path fill-rule="evenodd" clip-rule="evenodd" d="M0 5.0001V15.0001C1.33199 15.0001 2.4118 12.7614 2.4118 10C2.4118 7.2387 1.33199 5.0001 0 5.0001ZM4.58801 3.01953V16.979C7.25198 16.979 9.41162 13.8539 9.41162 9.9992C9.41162 6.1444 7.25198 3.01953 4.58801 3.01953ZM21.2348 10C21.2348 15.5229 16.9157 20 11.5878 20V0C16.9157 0 21.2348 4.47724 21.2348 10Z" fill="#100024"/>
</g>
<defs>
<clipPath id="clip0_532_3821">
<rect width="82" height="20" fill="white"/>
</clipPath>
</defs>
</svg>
