<svg width="22" height="39" viewBox="0 0 22 39" fill="none" xmlns="http://www.w3.org/2000/svg">
<path d="M3.79948 36.2772C-1.22462 31.8988 -1.20646 24.3659 3.49985 19.761C3.53462 19.7268 3.56227 19.6859 3.58115 19.6407C3.60002 19.5955 3.60974 19.547 3.60974 19.4979C3.60974 19.4488 3.60002 19.4003 3.58115 19.3551C3.56227 19.3099 3.53462 19.269 3.49985 19.2348C-3.2736 12.6228 0.479339 0.561481 10.1886 0.0199161C20.7119 -0.567544 25.9448 11.9802 18.4632 19.2501C18.4303 19.2818 18.4041 19.3199 18.3861 19.3621C18.3681 19.4043 18.3586 19.4498 18.3584 19.4957C18.3581 19.5417 18.3669 19.5872 18.3844 19.6297C18.4019 19.6721 18.4277 19.7105 18.4601 19.7427C20.2398 21.5091 21.3495 23.551 21.7894 25.8682C23.7476 36.1977 11.608 43.085 3.79948 36.2772ZM9.1232 14.734C9.49042 14.3301 9.51766 13.8956 9.20492 13.4305C9.13632 13.3285 9.13733 13.2286 9.20794 13.1307C9.51262 12.7146 9.49547 12.3138 9.15649 11.9282C9.12974 11.8964 9.11538 11.8559 9.11612 11.8141C9.11686 11.7724 9.13265 11.7324 9.16052 11.7016C9.18838 11.6708 9.22642 11.6513 9.26747 11.6468C9.30853 11.6424 9.34978 11.6532 9.38349 11.6773C9.80721 11.9894 10.2229 11.9782 10.6304 11.6437C10.6702 11.6115 10.72 11.5947 10.7706 11.5963C10.8212 11.598 10.8692 11.6181 10.9058 11.6529C11.3154 12.0282 11.7301 12.02 12.1498 11.6284C12.1876 11.5937 12.2374 11.5755 12.2884 11.5778C12.3395 11.5801 12.3875 11.6027 12.4222 11.6406C12.6582 11.9017 12.9548 11.9843 13.312 11.8885C13.4247 11.858 13.5293 11.8027 13.6184 11.7265C13.7075 11.6503 13.7787 11.5551 13.827 11.4477C13.8754 11.3403 13.8996 11.2235 13.8979 11.1055C13.8962 10.9876 13.8687 10.8715 13.8174 10.7655C13.6257 10.3719 13.3039 10.172 12.8519 10.1658C12.8051 10.1659 12.759 10.1832 12.7218 10.2148L12.3858 10.5208C12.3456 10.5562 12.2931 10.5741 12.2399 10.5707C12.1866 10.5672 12.1368 10.5427 12.1013 10.5024C11.7301 10.0761 11.3407 10.0506 10.9331 10.4259C10.8261 10.5238 10.7111 10.5371 10.5881 10.4657L10.2037 10.2423C10.1028 10.1832 9.99384 10.1628 9.87682 10.1811C9.66698 10.2179 9.48235 10.3158 9.32296 10.4749C9.29865 10.5003 9.26593 10.5158 9.23106 10.5183C9.19619 10.5209 9.1616 10.5104 9.1339 10.4888C9.1062 10.4673 9.08732 10.4361 9.08088 10.4014C9.07445 10.3666 9.08089 10.3307 9.09899 10.3005L9.38954 9.80174C9.39954 9.78351 9.4067 9.76282 9.41072 9.74055C9.4652 9.42846 9.37945 9.16839 9.15347 8.96033C9.13754 8.94591 9.12456 8.92848 9.11531 8.90907C9.10605 8.88965 9.10071 8.86863 9.09958 8.84725C9.09845 8.82587 9.10157 8.80456 9.10874 8.78457C9.11592 8.76458 9.12701 8.74632 9.14136 8.73085C9.52674 8.3025 9.52473 7.87924 9.13531 7.46108C9.11278 7.43752 9.10048 7.40576 9.10105 7.3726C9.10161 7.33944 9.115 7.3075 9.13834 7.28362L9.20492 7.21325C9.23759 7.18004 9.28179 7.16092 9.32849 7.15978C9.37519 7.15864 9.42085 7.17558 9.45613 7.20713C9.93432 7.6416 10.35 7.61101 10.7031 7.11534C10.7172 7.09607 10.7353 7.08013 10.756 7.06866C10.7768 7.05719 10.7997 7.05049 10.8232 7.04903C10.8466 7.04756 10.87 7.05138 10.8916 7.0602C10.9132 7.06902 10.9326 7.08263 10.9482 7.10004C11.4183 7.62426 11.8955 7.63854 12.3798 7.14287C12.3957 7.12687 12.4145 7.11417 12.4352 7.10549C12.4559 7.09682 12.478 7.09236 12.5002 7.09236C12.5225 7.09236 12.5444 7.09682 12.5648 7.10549C12.5852 7.11417 12.6035 7.12687 12.6189 7.14287C13.3937 7.95675 14.5226 7.01743 14.111 6.28004C13.7155 5.57835 13.2161 5.50594 12.6128 6.0628C12.5281 6.14236 12.4444 6.14134 12.3616 6.05975C11.8633 5.57223 11.4012 5.59773 10.9755 6.13624C10.9028 6.22803 10.8292 6.22803 10.7545 6.13624C10.3389 5.62017 9.88085 5.58141 9.38046 6.01997C9.36166 6.0364 9.33981 6.0489 9.31618 6.05672C9.29256 6.06455 9.26764 6.06756 9.24286 6.06556C9.21808 6.06357 9.19394 6.05662 9.17184 6.04512C9.14974 6.03361 9.13012 6.01778 9.11412 5.99855C8.39683 5.14796 7.18923 6.36571 7.95797 7.22855C8.03061 7.31014 8.0296 7.38969 7.95495 7.4672C7.55141 7.89556 7.56351 8.3127 7.99127 8.71861C8.00731 8.73334 8.02011 8.75132 8.02887 8.77142C8.03762 8.79152 8.04213 8.81331 8.04213 8.83543C8.04213 8.85755 8.03762 8.87952 8.02887 8.89996C8.02011 8.92039 8.00731 8.93887 7.99127 8.95421C7.56553 9.35809 7.55242 9.77319 7.95192 10.1995C8.03061 10.2831 8.03061 10.3678 7.95192 10.4535C7.56251 10.8737 7.57058 11.2928 7.97614 11.711C8.0006 11.7376 8.0142 11.7726 8.0142 11.8089C8.0142 11.8452 8.0006 11.8802 7.97614 11.9068C7.56049 12.3413 7.55746 12.7615 7.96706 13.1674C8.03566 13.2368 8.03667 13.3071 7.97008 13.3785C7.56654 13.8028 7.56452 14.2271 7.96403 14.6514C8.04474 14.7391 8.0407 14.8227 7.95192 14.9022C7.13475 15.6366 8.14865 16.8421 9.18373 16.1261C9.26444 16.069 9.34313 16.071 9.4198 16.1322C9.91011 16.5157 10.3419 16.4749 10.7152 16.0099C10.7308 15.9905 10.7504 15.9747 10.7726 15.9637C10.7948 15.9527 10.819 15.9467 10.8435 15.9461C10.868 15.9456 10.8922 15.9504 10.9145 15.9604C10.9368 15.9703 10.9566 15.9851 10.9724 16.0037C11.4204 16.5137 11.8794 16.528 12.3495 16.0466C12.3836 16.0108 12.43 15.9896 12.4795 15.9874C12.5289 15.9851 12.5777 16.0019 12.6159 16.0343C13.2272 16.5626 13.7387 16.4688 14.1503 15.7528C14.2046 15.657 14.2187 15.5415 14.1897 15.4316C14.0303 14.8604 13.6499 14.6146 13.0487 14.6942C12.9585 14.706 12.8752 14.7481 12.8126 14.8135L12.6613 14.9634C12.6197 15.0052 12.5645 15.03 12.5067 15.0328C12.449 15.0356 12.3928 15.0163 12.3495 14.9787C11.8511 14.5606 11.3871 14.5698 10.9573 15.0063C10.9333 15.0302 10.9018 15.0449 10.8686 15.0477C10.8353 15.0505 10.8024 15.0413 10.7757 15.0216L10.2491 14.6299C10.1805 14.5789 10.1078 14.5708 10.0312 14.6055L9.26545 14.9359C9.23898 14.9493 9.20864 14.9527 9.17992 14.9455C9.15119 14.9383 9.12597 14.9209 9.10879 14.8965C9.09162 14.8721 9.08363 14.8424 9.08627 14.8125C9.08892 14.7827 9.10201 14.7549 9.1232 14.734ZM9.41072 28.5393C9.84857 28.8881 10.2501 28.8585 10.6153 28.4506C10.6301 28.4339 10.648 28.4205 10.668 28.4111C10.688 28.4017 10.7096 28.3966 10.7315 28.396C10.7533 28.3954 10.775 28.3995 10.7951 28.4078C10.8152 28.4161 10.8334 28.4286 10.8483 28.4444C11.2821 28.8932 11.718 28.8993 12.1558 28.4628C12.1849 28.4338 12.2242 28.4176 12.2654 28.4176C12.3067 28.4176 12.3466 28.4338 12.3768 28.4628C13.5511 29.6071 14.5105 27.4531 13.2847 27.0982C12.97 27.0084 12.6673 27.0931 12.3768 27.3521C12.3061 27.4154 12.2385 27.4133 12.174 27.346C11.7583 26.9238 11.3346 26.9024 10.9028 27.2818C10.8547 27.3231 10.7935 27.3459 10.7303 27.3459C10.6671 27.3459 10.606 27.3231 10.5578 27.2818C10.1603 26.9431 9.7497 26.9513 9.32598 27.3062C9.29558 27.3322 9.25641 27.3454 9.21666 27.3428C9.17691 27.3403 9.13966 27.3224 9.11269 27.2927C9.08573 27.2631 9.07114 27.2241 9.07197 27.1838C9.0728 27.1436 9.08898 27.1052 9.11715 27.0768C9.5106 26.6688 9.52876 26.2588 9.17163 25.8468C9.09495 25.759 9.09495 25.6703 9.17163 25.5806C9.52674 25.1665 9.51867 24.731 9.14741 24.2741C9.07881 24.1904 9.09092 24.1211 9.18373 24.066L9.2594 24.0201C9.31387 23.9875 9.36634 23.9916 9.41678 24.0324C9.93936 24.4689 10.3752 24.4403 10.7243 23.9467C10.7949 23.8467 10.8705 23.8416 10.9512 23.9314C11.4153 24.4475 11.8865 24.4628 12.3646 23.9773C12.3967 23.9429 12.4413 23.9229 12.4888 23.9218C12.5363 23.9206 12.583 23.9384 12.6189 23.9712C13.1959 24.5036 13.6933 24.4383 14.111 23.7753C14.1957 23.6393 14.2292 23.4771 14.2053 23.3186C14.1813 23.1601 14.1016 23.0159 13.9808 22.9125C13.5289 22.527 13.0759 22.5239 12.6219 22.9033C12.5833 22.9355 12.5346 22.9525 12.4846 22.9514C12.4346 22.9502 12.3867 22.931 12.3495 22.8972C11.8733 22.4648 11.4194 22.475 10.9876 22.9278C10.9707 22.9462 10.9502 22.9609 10.9272 22.9707C10.9043 22.9806 10.8794 22.9856 10.8541 22.9853C10.8289 22.985 10.8038 22.9795 10.7804 22.9691C10.757 22.9587 10.7359 22.9436 10.7182 22.9248C10.3227 22.4984 9.89699 22.4668 9.44099 22.8299C9.40285 22.8611 9.35596 22.8797 9.30669 22.8829C9.25742 22.8862 9.20815 22.8741 9.16557 22.8483C8.13049 22.2027 7.09843 23.3103 7.98824 24.0568C8.00752 24.0726 8.02314 24.0924 8.03406 24.1149C8.04497 24.1375 8.05092 24.1622 8.0515 24.1875C8.05207 24.2127 8.04726 24.2379 8.03739 24.2613C8.02752 24.2847 8.01282 24.3058 7.99429 24.323C7.56049 24.7228 7.54838 25.1379 7.95797 25.5683C7.99009 25.6028 8.00778 25.6484 8.00721 25.6953C8.00665 25.7422 7.98788 25.7867 7.95495 25.8192C7.54737 26.2292 7.54939 26.6321 7.961 27.0278C7.97824 27.0442 7.99209 27.0639 8.00173 27.0857C8.01138 27.1076 8.01664 27.1311 8.01721 27.155C8.01777 27.1789 8.01363 27.2027 8.00502 27.225C7.99641 27.2473 7.98351 27.2676 7.96706 27.2848C7.55141 27.7132 7.55544 28.1252 7.97916 28.5209C7.99375 28.5347 8.00548 28.5513 8.01369 28.5698C8.0219 28.5882 8.02641 28.6081 8.02698 28.6283C8.02754 28.6485 8.02414 28.6686 8.01697 28.6874C8.0098 28.7063 7.99901 28.7235 7.98522 28.7382C7.5736 29.1624 7.55948 29.5847 7.94284 30.0049C7.97134 30.036 7.98741 30.0766 7.98797 30.119C7.98853 30.1614 7.97353 30.2025 7.94587 30.2344C7.55645 30.6811 7.57057 31.1002 7.98824 31.4919C8.07298 31.5714 8.07096 31.6489 7.98219 31.7244C7.11962 32.474 8.20312 33.7897 9.18373 32.9667C9.2604 32.9034 9.33708 32.9034 9.41375 32.9667C9.94441 33.4134 10.3873 33.3654 10.7424 32.8229C10.811 32.7168 10.8837 32.7147 10.9603 32.8167C11.376 33.3818 11.831 33.4093 12.3253 32.8993C12.3959 32.828 12.4726 32.8208 12.5553 32.8779L13.0123 33.1961C13.0977 33.2551 13.2026 33.2792 13.3059 33.2634C15.1461 32.9942 13.6025 30.5036 12.6219 31.856C12.5493 31.9559 12.4696 31.9621 12.3828 31.8743L12.0892 31.5806C12.049 31.539 12.0008 31.5062 11.9477 31.4841C11.8947 31.462 11.8378 31.4511 11.7805 31.4521C11.4274 31.4521 11.155 31.6092 10.9634 31.9233C10.9525 31.9408 10.9376 31.9553 10.9197 31.9654C10.9019 31.9755 10.8817 31.9809 10.8611 31.9812C10.8404 31.9815 10.8199 31.9767 10.8013 31.9671C10.7827 31.9575 10.7667 31.9435 10.7545 31.9264C10.351 31.3307 9.89699 31.292 9.39257 31.8101C9.34818 31.855 9.30379 31.855 9.2594 31.8101L9.12623 31.6755C9.11006 31.6589 9.10076 31.6366 9.1002 31.6133C9.09964 31.59 9.10786 31.5674 9.1232 31.55C9.49648 31.14 9.52271 30.7117 9.20189 30.265C9.12925 30.165 9.13026 30.0661 9.20492 29.9682C9.51968 29.5582 9.49648 29.1584 9.13531 28.7688C9.0889 28.7198 9.08991 28.6719 9.13834 28.625L9.21097 28.5515C9.27352 28.4862 9.3401 28.4822 9.41072 28.5393Z" fill="#009C9C"/>
</svg>
