<svg xmlns="http://www.w3.org/2000/svg" viewBox="0 0 100 100">
<style>
  .tile { fill: #f4f4f5; stroke: #dcdce0; stroke-width: 2; }
  .s { fill: #1c1c1e; }
  @media (prefers-color-scheme: dark) {
    .tile { fill: #212225; stroke: #3a3b40; }
    .s { fill: #ffffff; }
  }
</style>
<rect class="tile" x="3" y="3" width="94" height="94" rx="24"/>
<path class="s" transform="translate(27.12 75.42) scale(0.07263 -0.07263)" d="M287 -8H342C499 -8 601 78 601 210C601 491 210 390 210 507C210 541 240 562 279 562H334C379 562 406 535 413 496H580C570 630 460 708 335 708H280C149 708 38 621 38 496C38 222 429 308 429 200C429 161 392 138 350 138H294C237 138 205 171 198 218H29C36 85 141 -8 287 -8Z"/>
</svg>