<svg width="120" height="18" viewBox="0 0 120 18" fill="none" xmlns="http://www.w3.org/2000/svg">
<g clip-path="url(#clip0_569_361)">
<path d="M42.5001 2.5703C42.5001 1.47865 43.3665 0.674805 44.5293 0.674805C45.7339 0.674805 46.5789 1.47865 46.5789 2.5703C46.5789 3.68399 45.7339 4.48674 44.5293 4.48674C43.3665 4.48674 42.5001 3.68399 42.5001 2.5703ZM46.1773 6.1617V17.2987C46.1773 17.404 46.1344 17.5049 46.0581 17.5794C45.9817 17.6538 45.8781 17.6956 45.7701 17.6956H43.3292C43.2213 17.6953 43.1179 17.6534 43.0416 17.579C42.9653 17.5047 42.9223 17.4039 42.922 17.2987V6.1617C42.922 6.05641 42.9649 5.95545 43.0413 5.881C43.1177 5.80656 43.2212 5.76473 43.3292 5.76473H45.7701C45.8236 5.76473 45.8766 5.775 45.926 5.79495C45.9754 5.8149 46.0203 5.84414 46.0581 5.881C46.0959 5.91786 46.1259 5.96162 46.1463 6.00978C46.1668 6.05795 46.1773 6.10957 46.1773 6.1617Z" fill="black"/>
<path d="M48.1681 13.822H50.5366C50.623 13.8224 50.707 13.8495 50.7766 13.8994C50.8461 13.9494 50.8975 14.0196 50.9235 14.0999C51.2142 14.9765 52.2378 15.5532 53.3316 15.5532C54.3496 15.5532 55.0011 15.1 55.0011 14.4197C55.0011 11.8835 48.0471 14.069 48.0471 9.22721C48.0471 7.02187 50.0129 5.51782 52.8452 5.51782C55.2737 5.51782 57.4307 6.82779 57.9691 8.84017C57.9839 8.89855 57.9849 8.95946 57.9719 9.01825C57.9589 9.07704 57.9322 9.13216 57.894 9.17939C57.8559 9.22662 57.8071 9.26472 57.7515 9.29078C57.6959 9.31684 57.6349 9.33017 57.5732 9.32976H55.1346C55.0566 9.32984 54.9803 9.30804 54.9147 9.26698C54.8491 9.22592 54.797 9.16733 54.7647 9.09819C54.4514 8.42115 53.6879 7.88526 52.7185 7.88526C51.7888 7.88526 51.1757 8.29766 51.1757 8.91515C51.1757 11.0587 58.1885 9.12135 58.1885 14.1087C58.1885 16.3549 56.0745 17.9416 53.2004 17.9416C50.5151 17.9416 48.2722 16.5214 47.7643 14.3028C47.7516 14.2444 47.7525 14.1841 47.7669 14.1261C47.7814 14.0681 47.809 14.0141 47.8478 13.9679C47.8865 13.9217 47.9355 13.8847 47.9909 13.8594C48.0463 13.8342 48.1069 13.8214 48.1681 13.822Z" fill="black"/>
<path d="M62.1271 17.41L58.7926 6.27299C58.7751 6.21379 58.7719 6.15143 58.7833 6.09083C58.7947 6.03024 58.8204 5.97305 58.8584 5.92377C58.8963 5.87449 58.9455 5.83448 59.0019 5.80687C59.0584 5.77925 59.1208 5.76481 59.184 5.76466H61.7233C61.8147 5.76467 61.9035 5.7947 61.9754 5.84991C62.0472 5.90512 62.0978 5.98229 62.1192 6.06899L63.748 12.6398C63.7655 12.6997 63.8026 12.7524 63.8536 12.7899C63.9047 12.8275 63.9668 12.8478 64.0307 12.8478C64.0946 12.8478 64.1568 12.8275 64.2078 12.7899C64.2589 12.7524 64.296 12.6997 64.3135 12.6398L65.983 6.06458C66.0048 5.97829 66.0556 5.90162 66.1274 5.84684C66.1992 5.79206 66.2878 5.76235 66.3789 5.76245H68.9974C69.0884 5.7624 69.1768 5.79216 69.2484 5.84695C69.32 5.90174 69.3706 5.97838 69.3922 6.06458L71.1194 12.7137C71.1369 12.7736 71.174 12.8263 71.225 12.8638C71.2761 12.9013 71.3382 12.9216 71.4021 12.9216C71.4661 12.9216 71.5282 12.9013 71.5792 12.8638C71.6303 12.8263 71.6674 12.7736 71.6849 12.7137L73.3816 6.06789C73.4037 5.9819 73.4547 5.90559 73.5265 5.85105C73.5982 5.79652 73.6865 5.76689 73.7775 5.76686H76.1946C76.2577 5.76688 76.3198 5.78116 76.3762 5.80858C76.4326 5.836 76.4817 5.87581 76.5197 5.92487C76.5576 5.97394 76.5833 6.03091 76.5949 6.09132C76.6064 6.15173 76.6033 6.21392 76.586 6.27299L73.3058 17.41C73.2815 17.4929 73.2301 17.5658 73.1595 17.6177C73.0889 17.6696 73.0029 17.6977 72.9144 17.6978H70.0052C69.916 17.6975 69.8294 17.6688 69.7585 17.6161C69.6877 17.5633 69.6365 17.4894 69.6127 17.4056L67.9692 11.5868C67.9517 11.5269 67.9146 11.4741 67.8636 11.4366C67.8125 11.3991 67.7504 11.3788 67.6865 11.3788C67.6226 11.3788 67.5604 11.3991 67.5094 11.4366C67.4583 11.4741 67.4212 11.5269 67.4037 11.5868L65.7421 17.4078C65.7183 17.4915 65.6671 17.5652 65.5962 17.6178C65.5253 17.6704 65.4387 17.6989 65.3496 17.6989H62.5218C62.4327 17.6993 62.3459 17.6713 62.2746 17.6191C62.2033 17.567 62.1515 17.4935 62.1271 17.41Z" fill="black"/>
<path d="M89.0021 9.90634V17.2942C89.0021 17.3995 88.9592 17.5005 88.8828 17.5749C88.8064 17.6494 88.7029 17.6912 88.5949 17.6912H86.1539C86.0459 17.6912 85.9424 17.6494 85.866 17.5749C85.7896 17.5005 85.7467 17.3995 85.7467 17.2942V10.5856C85.7467 9.22599 84.8803 8.38024 83.6124 8.38024C82.2166 8.38024 81.3501 9.45093 81.3501 10.8943V17.2975C81.3501 17.4028 81.3072 17.5038 81.2309 17.5782C81.1545 17.6527 81.0509 17.6945 80.9429 17.6945H78.4986C78.4452 17.6945 78.3922 17.6842 78.3428 17.6643C78.2934 17.6443 78.2485 17.6151 78.2107 17.5782C78.1729 17.5414 78.1429 17.4976 78.1224 17.4495C78.102 17.4013 78.0914 17.3497 78.0914 17.2975V2.67943C78.0914 2.6273 78.102 2.57568 78.1224 2.52752C78.1429 2.47936 78.1729 2.4356 78.2107 2.39874C78.2485 2.36188 78.2934 2.33264 78.3428 2.31269C78.3922 2.29274 78.4452 2.28247 78.4986 2.28247H80.9384C80.9919 2.28247 81.0448 2.29274 81.0942 2.31269C81.1436 2.33264 81.1885 2.36188 81.2264 2.39874C81.2642 2.4356 81.2942 2.47936 81.3146 2.52752C81.3351 2.57568 81.3456 2.6273 81.3456 2.67943V6.38771C81.3458 6.44437 81.3631 6.49971 81.3955 6.54675C81.4279 6.59379 81.4739 6.63042 81.5276 6.65201C81.5814 6.6736 81.6405 6.67919 81.6974 6.66806C81.7544 6.65694 81.8068 6.6296 81.8478 6.5895C82.2084 6.24282 82.6358 5.96921 83.1054 5.78449C83.5751 5.59977 84.0776 5.5076 84.584 5.5133C87.1844 5.5133 89.0021 7.207 89.0021 9.90634Z" fill="black"/>
<path d="M120 2.67943V17.2997C120 17.405 119.957 17.506 119.881 17.5804C119.804 17.6549 119.701 17.6967 119.593 17.6967H117.152C117.044 17.6964 116.941 17.6545 116.864 17.5801C116.788 17.5057 116.745 17.4049 116.745 17.2997V2.67943C116.745 2.57415 116.788 2.47318 116.864 2.39874C116.94 2.32429 117.044 2.28247 117.152 2.28247H119.593C119.646 2.28247 119.699 2.29274 119.749 2.31269C119.798 2.33264 119.843 2.36188 119.881 2.39874C119.918 2.4356 119.948 2.47936 119.969 2.52752C119.989 2.57568 120 2.6273 120 2.67943Z" fill="black"/>
<path d="M11.362 6.57848L0.600627 3.57591C0.53313 3.55927 0.469788 3.52948 0.414417 3.48833C0.359047 3.44719 0.312793 3.39554 0.278445 3.33651C0.244097 3.27747 0.222364 3.21226 0.214557 3.14482C0.20675 3.07738 0.21303 3.00909 0.233018 2.94408L1.0395 0.353903C1.0599 0.289091 1.09357 0.228982 1.13846 0.177207C1.18336 0.125432 1.23855 0.0830643 1.30071 0.0526627C1.36287 0.022261 1.43071 0.00445601 1.50012 0.000322893C1.56954 -0.00381022 1.63909 0.00581427 1.70459 0.0286152L12.2962 3.5748C12.3962 3.6187 12.4753 3.69812 12.5173 3.79687C12.5594 3.89562 12.5612 4.00627 12.5225 4.10629L11.8517 6.26091C11.8268 6.36462 11.7623 6.45517 11.6713 6.51416C11.5803 6.57315 11.4697 6.59615 11.362 6.57848Z" fill="black"/>
<path d="M1.61975 16.141C1.61975 15.0813 2.46016 14.3018 3.58787 14.3018C4.7563 14.3018 5.57635 15.0813 5.57635 16.141C5.57635 17.2205 4.7563 18.0001 3.58787 18.0001C2.45677 18.0001 1.61975 17.2205 1.61975 16.141Z" fill="black"/>
<path d="M9.15177 11.4678L0.52031 11.437C0.452757 11.4393 0.385406 11.4284 0.322295 11.4048C0.259185 11.3812 0.201612 11.3454 0.153028 11.2996C0.104444 11.2538 0.0658478 11.1989 0.039553 11.1381C0.0132583 11.0774 -0.000194047 11.0122 2.11479e-06 10.9463L0.0927527 8.38698C0.0972466 8.3212 0.11532 8.25699 0.145889 8.19819C0.176459 8.13939 0.218894 8.08721 0.270651 8.04479C0.322408 8.00237 0.38242 7.97057 0.447089 7.9513C0.511759 7.93204 0.579752 7.9257 0.646994 7.93268L9.25922 8.49615C9.36577 8.50889 9.4631 8.56138 9.5308 8.64259C9.5985 8.7238 9.6313 8.82742 9.62231 8.9317L9.54539 11.0599C9.54669 11.1643 9.5064 11.2652 9.433 11.3413C9.35959 11.4173 9.25878 11.4627 9.15177 11.4678Z" fill="black"/>
<path d="M31.931 6.1618V8.12897C31.931 8.23425 31.8881 8.33522 31.8118 8.40966C31.7354 8.48411 31.6318 8.52593 31.5238 8.52593H30.3068C28.6587 8.52593 27.7708 9.82488 27.7708 11.8229V17.2999C27.7708 17.4052 27.7279 17.5061 27.6516 17.5806C27.5752 17.655 27.4716 17.6968 27.3636 17.6968H24.9227C24.8147 17.6968 24.7111 17.655 24.6348 17.5806C24.5584 17.5061 24.5155 17.4052 24.5155 17.2999V6.16291C24.5155 6.05762 24.5584 5.95666 24.6348 5.88221C24.7111 5.80777 24.8147 5.76594 24.9227 5.76594H27.0333C27.1332 5.76588 27.2297 5.80172 27.3042 5.86662C27.3787 5.93152 27.426 6.02091 27.4371 6.1177L27.4982 6.63375C27.5047 6.69086 27.5287 6.74474 27.5671 6.78834C27.6056 6.83193 27.6566 6.86322 27.7135 6.87811C27.7704 6.893 27.8307 6.8908 27.8863 6.87179C27.9419 6.85278 27.9904 6.81786 28.0253 6.77158C28.2639 6.45439 28.5769 6.19755 28.9382 6.02258C29.2996 5.84761 29.6986 5.75961 30.102 5.76594H31.5238C31.6316 5.76594 31.735 5.80761 31.8114 5.88182C31.8877 5.95603 31.9307 6.05671 31.931 6.1618Z" fill="black"/>
<path d="M22.2828 13.7603C22.3469 13.7604 22.41 13.7751 22.4671 13.8034C22.5242 13.8316 22.5737 13.8726 22.6115 13.9229C22.6494 13.9733 22.6746 14.0316 22.6851 14.0932C22.6956 14.1547 22.6911 14.2179 22.6719 14.2774C21.8801 16.7165 19.8815 17.9438 17.3501 17.9438C13.6717 17.9438 11.4321 15.1618 11.4321 11.7203C11.4321 8.30207 13.7147 5.51782 17.2652 5.51782C20.8712 5.51782 23.0339 8.04294 22.8563 11.7964C22.8489 11.909 22.7982 12.0147 22.7143 12.0924C22.6304 12.1701 22.5195 12.214 22.4038 12.2154H14.9306C14.8823 12.2155 14.8346 12.2258 14.7909 12.2458C14.7472 12.2659 14.7086 12.295 14.6777 12.3312C14.6468 12.3674 14.6245 12.4098 14.6123 12.4553C14.6001 12.5009 14.5983 12.5485 14.6071 12.5948C14.8752 14.0437 15.7292 15.1618 17.3455 15.1618C18.4484 15.1618 19.1304 14.6777 19.4483 13.9952C19.4787 13.9262 19.5289 13.8673 19.593 13.8256C19.657 13.7839 19.7321 13.7612 19.8091 13.7603H22.2828ZM15.0698 10.1744H19.4019C19.4454 10.1745 19.4884 10.1653 19.5278 10.1473C19.5671 10.1293 19.6019 10.103 19.6296 10.0703C19.6573 10.0376 19.6772 9.99929 19.6879 9.95819C19.6986 9.91709 19.6998 9.87418 19.6915 9.83257C19.4652 8.75196 18.5366 8.0683 17.3274 8.0683C16.1873 8.0683 15.2349 8.68469 14.7938 9.78295C14.7759 9.82658 14.7694 9.87383 14.7747 9.92052C14.78 9.96721 14.7971 10.0119 14.8244 10.0506C14.8517 10.0893 14.8884 10.1209 14.9312 10.1425C14.974 10.1641 15.0216 10.175 15.0698 10.1744Z" fill="black"/>
<path d="M41.1993 6.16162V8.12879C41.1993 8.23407 41.1564 8.33504 41.0801 8.40948C41.0037 8.48393 40.9001 8.52575 40.7921 8.52575H39.5762C37.9271 8.52575 37.0391 9.8247 37.0391 11.8227V17.2997C37.0391 17.405 36.9962 17.5059 36.9199 17.5804C36.8435 17.6548 36.7399 17.6967 36.6319 17.6967H34.191C34.0831 17.6964 33.9797 17.6545 33.9034 17.5801C33.8271 17.5057 33.7841 17.4049 33.7838 17.2997V6.16273C33.7838 6.05744 33.8267 5.95648 33.9031 5.88203C33.9794 5.80759 34.083 5.76576 34.191 5.76576H36.296C36.396 5.76567 36.4926 5.80148 36.5673 5.86635C36.642 5.93123 36.6895 6.02063 36.7009 6.11752L36.7609 6.63357C36.7674 6.69068 36.7914 6.74456 36.8298 6.78816C36.8682 6.83175 36.9192 6.86304 36.9762 6.87793C37.0331 6.89282 37.0933 6.89062 37.1489 6.87161C37.2046 6.8526 37.253 6.81768 37.288 6.7714C37.5263 6.45445 37.839 6.19768 38.1998 6.02255C38.5607 5.84741 38.9593 5.75899 39.3624 5.76466H40.7899C40.8435 5.76437 40.8967 5.77442 40.9464 5.79424C40.9961 5.81406 41.0412 5.84326 41.0793 5.88015C41.1173 5.91704 41.1475 5.96089 41.1681 6.0092C41.1887 6.05751 41.1993 6.10931 41.1993 6.16162Z" fill="black"/>
<path d="M101.506 13.7603C101.57 13.7604 101.634 13.7751 101.691 13.8034C101.748 13.8316 101.797 13.8726 101.835 13.9229C101.873 13.9733 101.898 14.0316 101.909 14.0932C101.919 14.1547 101.915 14.2179 101.896 14.2774C101.104 16.7165 99.1051 17.9438 96.5726 17.9438C92.8953 17.9438 90.6558 15.1618 90.6558 11.7203C90.6558 8.30207 92.9383 5.51782 96.4889 5.51782C100.094 5.51782 102.257 8.04294 102.08 11.7964C102.073 11.909 102.022 12.0147 101.938 12.0924C101.854 12.1701 101.743 12.214 101.627 12.2154H94.1622C94.1139 12.2155 94.0662 12.2258 94.0225 12.2458C93.9788 12.2659 93.9401 12.295 93.9092 12.3312C93.8784 12.3674 93.856 12.4098 93.8438 12.4553C93.8317 12.5009 93.8299 12.5485 93.8387 12.5948C94.1068 14.0437 94.9607 15.1618 96.576 15.1618C97.6799 15.1618 98.362 14.6777 98.6798 13.9952C98.7102 13.9262 98.7605 13.8673 98.8245 13.8256C98.8886 13.7839 98.9636 13.7612 99.0406 13.7603H101.506ZM94.2934 10.1744H98.6323C98.6758 10.1745 98.7188 10.1653 98.7582 10.1473C98.7976 10.1293 98.8323 10.103 98.86 10.0703C98.8877 10.0376 98.9076 9.99929 98.9183 9.95819C98.929 9.91709 98.9302 9.87418 98.9219 9.83257C98.6957 8.75196 97.767 8.0683 96.5579 8.0683C95.4177 8.0683 94.4653 8.68469 94.0242 9.78295C94.0065 9.82606 93.9999 9.87271 94.0049 9.91887C94.01 9.96503 94.0264 10.0093 94.0529 10.0479C94.0795 10.0864 94.1152 10.1181 94.1571 10.1401C94.199 10.1622 94.2458 10.1739 94.2934 10.1744Z" fill="black"/>
<path d="M114.468 13.7603C114.532 13.7603 114.595 13.775 114.652 13.8033C114.709 13.8316 114.759 13.8725 114.796 13.9229C114.834 13.9733 114.859 14.0317 114.87 14.0933C114.88 14.1549 114.875 14.218 114.856 14.2774C114.064 16.7165 112.066 17.9438 109.534 17.9438C105.857 17.9438 103.616 15.1618 103.616 11.7203C103.616 8.30207 105.9 5.51782 109.45 5.51782C113.055 5.51782 115.219 8.04294 115.041 11.7964C115.034 11.909 114.983 12.0147 114.899 12.0924C114.815 12.1701 114.705 12.214 114.589 12.2154H107.116C107.067 12.2156 107.02 12.2261 106.976 12.2462C106.933 12.2663 106.894 12.2954 106.863 12.3316C106.833 12.3678 106.81 12.4101 106.798 12.4556C106.786 12.5011 106.784 12.5486 106.793 12.5948C107.06 14.0437 107.915 15.1618 109.531 15.1618C110.634 15.1618 111.317 14.6777 111.633 13.9952C111.664 13.9263 111.714 13.8676 111.778 13.826C111.842 13.7843 111.917 13.7615 111.994 13.7603H114.468ZM107.256 10.1744H111.589C111.633 10.1744 111.675 10.165 111.715 10.1469C111.754 10.1288 111.789 10.1025 111.816 10.0698C111.844 10.0372 111.863 9.99894 111.874 9.95792C111.885 9.9169 111.886 9.87409 111.878 9.83257C111.651 8.75196 110.723 8.0683 109.515 8.0683C108.375 8.0683 107.422 8.68469 106.98 9.78295C106.962 9.82658 106.955 9.87383 106.961 9.92052C106.966 9.96721 106.983 10.0119 107.011 10.0506C107.038 10.0893 107.074 10.1209 107.117 10.1425C107.16 10.1641 107.208 10.175 107.256 10.1744Z" fill="black"/>
</g>
<defs>
<clipPath id="clip0_569_361">
<rect width="120" height="18" fill="white"/>
</clipPath>
</defs>
</svg>
