<svg width="13" height="18" viewBox="0 0 13 18" fill="none" xmlns="http://www.w3.org/2000/svg">
<path d="M11.362 6.57848L0.600627 3.57591C0.53313 3.55927 0.469788 3.52948 0.414417 3.48833C0.359047 3.44719 0.312793 3.39554 0.278445 3.33651C0.244097 3.27747 0.222364 3.21226 0.214557 3.14482C0.20675 3.07738 0.21303 3.00909 0.233018 2.94408L1.0395 0.353903C1.0599 0.289091 1.09357 0.228982 1.13846 0.177207C1.18336 0.125432 1.23855 0.0830643 1.30071 0.0526627C1.36287 0.022261 1.43071 0.00445601 1.50012 0.000322893C1.56954 -0.00381022 1.63909 0.00581427 1.70459 0.0286152L12.2962 3.5748C12.3962 3.6187 12.4753 3.69812 12.5173 3.79687C12.5594 3.89562 12.5612 4.00627 12.5225 4.10629L11.8517 6.26091C11.8268 6.36462 11.7623 6.45517 11.6713 6.51416C11.5803 6.57315 11.4697 6.59615 11.362 6.57848Z" fill="#ffffff"/>
<path d="M1.61975 16.141C1.61975 15.0813 2.46016 14.3018 3.58787 14.3018C4.7563 14.3018 5.57635 15.0813 5.57635 16.141C5.57635 17.2205 4.7563 18.0001 3.58787 18.0001C2.45677 18.0001 1.61975 17.2205 1.61975 16.141Z" fill="#ffffff"/>
<path d="M9.15177 11.4678L0.52031 11.437C0.452757 11.4393 0.385406 11.4284 0.322295 11.4048C0.259185 11.3812 0.201612 11.3454 0.153028 11.2996C0.104444 11.2538 0.0658478 11.1989 0.039553 11.1381C0.0132583 11.0774 -0.000194047 11.0122 2.11479e-06 10.9463L0.0927527 8.38698C0.0972466 8.3212 0.11532 8.25699 0.145889 8.19819C0.176459 8.13939 0.218894 8.08721 0.270651 8.04479C0.322408 8.00237 0.38242 7.97057 0.447089 7.9513C0.511759 7.93204 0.579752 7.9257 0.646994 7.93268L9.25922 8.49615C9.36577 8.50889 9.4631 8.56138 9.5308 8.64259C9.5985 8.7238 9.6313 8.82742 9.62231 8.9317L9.54539 11.0599C9.54669 11.1643 9.5064 11.2652 9.433 11.3413C9.35959 11.4173 9.25878 11.4627 9.15177 11.4678Z" fill="#ffffff"/>
</svg>
